<?xml version="1.0" encoding="UTF-8" standalone="no"?>
<!-- Created with Inkscape (http://www.inkscape.org/) -->

<svg
   xmlns:dc="http://purl.org/dc/elements/1.1/"
   xmlns:cc="http://creativecommons.org/ns#"
   xmlns:rdf="http://www.w3.org/1999/02/22-rdf-syntax-ns#"
   xmlns:svg="http://www.w3.org/2000/svg"
   xmlns="http://www.w3.org/2000/svg"
   xmlns:sodipodi="http://sodipodi.sourceforge.net/DTD/sodipodi-0.dtd"
   xmlns:inkscape="http://www.inkscape.org/namespaces/inkscape"
   version="1.1"
   id="svg2"
   xml:space="preserve"
   width="39.685333"
   height="39.253334"
   viewBox="0 0 39.685333 39.253334"
   sodipodi:docname="EI_Logo_RGB.svg"
   inkscape:version="0.92.1 r15371"><metadata
     id="metadata8"><rdf:RDF><cc:Work
         rdf:about=""><dc:format>image/svg+xml</dc:format><dc:type
           rdf:resource="http://purl.org/dc/dcmitype/StillImage" /><dc:title></dc:title></cc:Work></rdf:RDF></metadata><defs
     id="defs6"><clipPath
       clipPathUnits="userSpaceOnUse"
       id="clipPath22"><path
         d="M 0,0 H 30 V 30 H 0 Z"
         id="path20"
         inkscape:connector-curvature="0" /></clipPath></defs><sodipodi:namedview
     pagecolor="#ffffff"
     bordercolor="#666666"
     borderopacity="1"
     objecttolerance="10"
     gridtolerance="10"
     guidetolerance="10"
     inkscape:pageopacity="0"
     inkscape:pageshadow="2"
     inkscape:window-width="1906"
     inkscape:window-height="2129"
     id="namedview4"
     showgrid="false"
     inkscape:zoom="6.0122282"
     inkscape:cx="-23.652023"
     inkscape:cy="19.626667"
     inkscape:window-x="3840"
     inkscape:window-y="24"
     inkscape:window-maximized="0"
     inkscape:current-layer="g10" /><g
     id="g10"
     inkscape:groupmode="layer"
     inkscape:label="EI_Logo_RGB"
     transform="matrix(1.3333333,0,0,-1.3333333,0,39.253335)"><g
       id="g12"><g
         id="g14"
         transform="translate(0,-0.559999)"><g
           id="g16"><g
             id="g18"
             clip-path="url(#clipPath22)"><g
               id="g24"><path
                 d="m 23.023,14.973 c -1.023,-2.672 -1.992,-5.2 -3.66,-5.2 -1.629,0 -2.554,2.43 -3.535,5.008 -1.148,3.02 -2.453,6.442 -5.262,6.442 -2.941,0 -4.464,-3.661 -5.808,-6.891 C 3.84,12.129 2.977,10.047 1.879,9.797 c -0.723,1.699 -1.117,3.558 -1.117,5.484 0,7.785 6.336,14.121 14.121,14.121 5.668,0 10.566,-3.359 12.808,-8.191 -2.359,-0.207 -3.531,-3.27 -4.668,-6.238 M 19.047,1.16 V 1.164 C 25.27,3 29.602,8.766 29.602,15.281 29.602,23.398 23,30 14.883,30 6.766,30 0.16,23.398 0.16,15.281 0.16,8.766 4.492,3 10.719,1.164 V 1.16 H 0 V 0.559 h 11.316 v 1.05 L 11.098,1.672 C 7.016,2.805 3.762,5.695 2.059,9.387 c 1.273,0.359 2.132,2.418 3.113,4.773 1.289,3.102 2.75,6.613 5.394,6.613 2.5,0 3.692,-3.125 4.844,-6.152 1.035,-2.723 2.016,-5.297 3.953,-5.297 1.977,0 2.996,2.664 4.078,5.488 1.114,2.907 2.262,5.907 4.45,5.961 0.718,-1.691 1.113,-3.546 1.113,-5.492 0,-6.324 -4.25,-11.922 -10.34,-13.609 L 18.445,1.609 V 0.559 H 29.766 V 1.16 Z"
                 style="fill:#1478c7;fill-opacity:1;fill-rule:nonzero;stroke:none"
                 id="path26"
                 inkscape:connector-curvature="0" /></g></g></g></g></g></g></svg>