<?xml version="1.0" encoding="UTF-8" standalone="no"?>
<svg
   xmlns:sketch="http://www.bohemiancoding.com/sketch/ns"
   xmlns:dc="http://purl.org/dc/elements/1.1/"
   xmlns:cc="http://creativecommons.org/ns#"
   xmlns:rdf="http://www.w3.org/1999/02/22-rdf-syntax-ns#"
   xmlns:svg="http://www.w3.org/2000/svg"
   xmlns="http://www.w3.org/2000/svg"
   xmlns:sodipodi="http://sodipodi.sourceforge.net/DTD/sodipodi-0.dtd"
   xmlns:inkscape="http://www.inkscape.org/namespaces/inkscape"
   width="740px"
   height="390px"
   viewBox="0 0 740 390"
   version="1.1"
   id="svg11"
   sodipodi:docname="TUM_Logo.svg"
   inkscape:version="0.92.1 r15371">
  <metadata
     id="metadata15">
    <rdf:RDF>
      <cc:Work
         rdf:about="">
        <dc:format>image/svg+xml</dc:format>
        <dc:type
           rdf:resource="http://purl.org/dc/dcmitype/StillImage" />
        <dc:title>2015_Logo_TUM_RGB</dc:title>
      </cc:Work>
    </rdf:RDF>
  </metadata>
  <sodipodi:namedview
     pagecolor="#ffffff"
     bordercolor="#666666"
     borderopacity="1"
     objecttolerance="10"
     gridtolerance="10"
     guidetolerance="10"
     inkscape:pageopacity="0"
     inkscape:pageshadow="2"
     inkscape:window-width="626"
     inkscape:window-height="1049"
     id="namedview13"
     showgrid="false"
     inkscape:zoom="0.60512821"
     inkscape:cx="18.008479"
     inkscape:cy="195"
     inkscape:window-x="1280"
     inkscape:window-y="1104"
     inkscape:window-maximized="0"
     inkscape:current-layer="svg11" />
  <!-- Generator: Sketch 3.4.3 (16618) - http://www.bohemiancoding.com/sketch -->
  <title
     id="title2">2015_Logo_TUM_RGB</title>
  <desc
     id="desc4">Created with Sketch.</desc>
  <defs
     id="defs6" />
  <g
     id="Page-1"
     stroke="none"
     stroke-width="1"
     fill="none"
     fill-rule="evenodd"
     sketch:type="MSPage">
    <g
       id="2015_Logo_TUM_RGB"
       sketch:type="MSArtboardGroup"
       fill="#0065BD">
      <path
         d="M405,9.13352234e-15 L370,2.70412665e-15 L370,320 L290,320 L290,1.5562918e-14 L255,9.13352234e-15 L0,1.35206332e-15 L0,70 L70,70 L70,390 L140,390 L140,70 L220,70 L220,390 L255,390 L405,390 L440,390 L440,70 L520,70 L520,390 L590,390 L590,70 L670,70 L670,390 L740,390 L740,35 L740,1.35206332e-15 L405,1.35206332e-15 Z"
         id="Rectangle-1"
         sketch:type="MSShapeGroup" />
    </g>
  </g>
</svg>
