<?xml version="1.0" encoding="UTF-8" standalone="no"?>
<!DOCTYPE svg PUBLIC "-//W3C//DTD SVG 1.1//EN"
 "http://www.w3.org/Graphics/SVG/1.1/DTD/svg11.dtd">
<!-- Generated by graphviz version 2.43.0 (0)
 -->
<!-- Title: G Pages: 1 -->
<svg width="1088pt" height="868pt"
 viewBox="0.00 0.00 1087.75 868.13" xmlns="http://www.w3.org/2000/svg" xmlns:xlink="http://www.w3.org/1999/xlink">
<g id="graph0" class="graph" transform="scale(1 1) rotate(0) translate(4 864.13)">
<title>G</title><style>.edge>path:hover{stroke-width:8}</style>
<polygon fill="white" stroke="transparent" points="-4,4 -4,-864.13 1083.75,-864.13 1083.75,4 -4,4"/>
<!-- pyrepsys -->
<g id="node1" class="node">
<title>pyrepsys</title><style>.edge>path:hover{stroke-width:8}</style>
<ellipse fill="#ef0606" stroke="black" cx="896.75" cy="-18" rx="35.82" ry="18"/>
<text text-anchor="middle" x="896.75" y="-15.5" font-family="Helvetica,sans-Serif" font-size="10.00" fill="#ffffff">pyrepsys</text>
</g>
<!-- pyrepsys_agent -->
<g id="node2" class="node">
<title>pyrepsys_agent</title><style>.edge>path:hover{stroke-width:8}</style>
<ellipse fill="#b42d2d" stroke="black" cx="237.75" cy="-544.49" rx="27" ry="18"/>
<text text-anchor="middle" x="237.75" y="-541.99" font-family="Helvetica,sans-Serif" font-size="10.00" fill="#ffffff">agent</text>
</g>
<!-- pyrepsys_behavior_behavior_base -->
<g id="node4" class="node">
<title>pyrepsys_behavior_behavior_base</title><style>.edge>path:hover{stroke-width:8}</style>
<ellipse fill="#bc2f2f" stroke="black" cx="285.75" cy="-387.64" rx="62.45" ry="21.43"/>
<text text-anchor="middle" x="285.75" y="-390.64" font-family="Helvetica,sans-Serif" font-size="10.00" fill="#ffffff">behavior.</text>
<text text-anchor="middle" x="285.75" y="-379.64" font-family="Helvetica,sans-Serif" font-size="10.00" fill="#ffffff">behavior_base</text>
</g>
<!-- pyrepsys_agent&#45;&gt;pyrepsys_behavior_behavior_base -->
<g id="edge1" class="edge">
<title>pyrepsys_agent&#45;&gt;pyrepsys_behavior_behavior_base</title><style>.edge>path:hover{stroke-width:8}</style>
<path fill="none" stroke="black" d="M242.98,-526.63C251.01,-500.74 266.47,-450.84 276.44,-418.67"/>
<polygon fill="#b42d2d" stroke="black" points="279.85,-419.49 279.47,-408.9 273.17,-417.42 279.85,-419.49"/>
</g>
<!-- pyrepsys_scenario_simulator -->
<g id="node24" class="node">
<title>pyrepsys_scenario_simulator</title><style>.edge>path:hover{stroke-width:8}</style>
<ellipse fill="#993333" stroke="black" cx="64.75" cy="-466.07" rx="64.51" ry="18"/>
<text text-anchor="middle" x="64.75" y="-463.57" font-family="Helvetica,sans-Serif" font-size="10.00" fill="#ffffff">scenario_simulator</text>
</g>
<!-- pyrepsys_agent&#45;&gt;pyrepsys_scenario_simulator -->
<g id="edge2" class="edge">
<title>pyrepsys_agent&#45;&gt;pyrepsys_scenario_simulator</title><style>.edge>path:hover{stroke-width:8}</style>
<path fill="none" stroke="black" d="M215.84,-533.81C188.58,-521.77 141.44,-500.94 107.05,-485.75"/>
<polygon fill="#b42d2d" stroke="black" points="108.27,-482.47 97.71,-481.63 105.45,-488.87 108.27,-482.47"/>
</g>
<!-- pyrepsys_behavior -->
<g id="node3" class="node">
<title>pyrepsys_behavior</title><style>.edge>path:hover{stroke-width:8}</style>
<ellipse fill="#b83d3d" stroke="black" cx="375.75" cy="-234" rx="34.96" ry="18"/>
<text text-anchor="middle" x="375.75" y="-231.5" font-family="Helvetica,sans-Serif" font-size="10.00" fill="#ffffff">behavior</text>
</g>
<!-- pyrepsys_instantiator -->
<g id="node11" class="node">
<title>pyrepsys_instantiator</title><style>.edge>path:hover{stroke-width:8}</style>
<ellipse fill="#a83838" stroke="black" cx="679.75" cy="-162" rx="42.94" ry="18"/>
<text text-anchor="middle" x="679.75" y="-159.5" font-family="Helvetica,sans-Serif" font-size="10.00" fill="#ffffff">instantiator</text>
</g>
<!-- pyrepsys_behavior&#45;&gt;pyrepsys_instantiator -->
<g id="edge3" class="edge">
<title>pyrepsys_behavior&#45;&gt;pyrepsys_instantiator</title><style>.edge>path:hover{stroke-width:8}</style>
<path fill="none" stroke="black" d="M406.86,-225.84C460.33,-213.53 569.96,-188.28 632.78,-173.82"/>
<polygon fill="#b83d3d" stroke="black" points="633.85,-177.16 642.81,-171.51 632.28,-170.34 633.85,-177.16"/>
</g>
<!-- pyrepsys_behavior_distort -->
<g id="node5" class="node">
<title>pyrepsys_behavior_distort</title><style>.edge>path:hover{stroke-width:8}</style>
<ellipse fill="#a83838" stroke="black" cx="375.75" cy="-309.21" rx="43.68" ry="21.43"/>
<text text-anchor="middle" x="375.75" y="-312.21" font-family="Helvetica,sans-Serif" font-size="10.00" fill="#ffffff">behavior.</text>
<text text-anchor="middle" x="375.75" y="-301.21" font-family="Helvetica,sans-Serif" font-size="10.00" fill="#ffffff">distort</text>
</g>
<!-- pyrepsys_behavior_behavior_base&#45;&gt;pyrepsys_behavior_distort -->
<g id="edge4" class="edge">
<title>pyrepsys_behavior_behavior_base&#45;&gt;pyrepsys_behavior_distort</title><style>.edge>path:hover{stroke-width:8}</style>
<path fill="none" stroke="black" d="M308,-367.75C319.7,-357.81 334.18,-345.51 346.75,-334.84"/>
<polygon fill="#bc2f2f" stroke="black" points="349.33,-337.24 354.69,-328.1 344.8,-331.91 349.33,-337.24"/>
</g>
<!-- pyrepsys_behavior_rate -->
<g id="node6" class="node">
<title>pyrepsys_behavior_rate</title><style>.edge>path:hover{stroke-width:8}</style>
<ellipse fill="#b03a3a" stroke="black" cx="265.75" cy="-309.21" rx="47.86" ry="18"/>
<text text-anchor="middle" x="265.75" y="-306.71" font-family="Helvetica,sans-Serif" font-size="10.00" fill="#ffffff">behavior.rate</text>
</g>
<!-- pyrepsys_behavior_behavior_base&#45;&gt;pyrepsys_behavior_rate -->
<g id="edge5" class="edge">
<title>pyrepsys_behavior_behavior_base&#45;&gt;pyrepsys_behavior_rate</title><style>.edge>path:hover{stroke-width:8}</style>
<path fill="none" stroke="black" d="M280.39,-366.16C278.05,-357.2 275.27,-346.56 272.76,-336.99"/>
<polygon fill="#bc2f2f" stroke="black" points="276.1,-335.92 270.18,-327.14 269.33,-337.7 276.1,-335.92"/>
</g>
<!-- pyrepsys_behavior_distort&#45;&gt;pyrepsys_behavior -->
<g id="edge6" class="edge">
<title>pyrepsys_behavior_distort&#45;&gt;pyrepsys_behavior</title><style>.edge>path:hover{stroke-width:8}</style>
<path fill="none" stroke="black" d="M375.75,-287.82C375.75,-279.97 375.75,-270.86 375.75,-262.45"/>
<polygon fill="#a83838" stroke="black" points="379.25,-262.31 375.75,-252.31 372.25,-262.31 379.25,-262.31"/>
</g>
<!-- pyrepsys_behavior_rate&#45;&gt;pyrepsys_behavior -->
<g id="edge7" class="edge">
<title>pyrepsys_behavior_rate&#45;&gt;pyrepsys_behavior</title><style>.edge>path:hover{stroke-width:8}</style>
<path fill="none" stroke="black" d="M288.28,-293.22C305.13,-282 328.32,-266.57 346.59,-254.41"/>
<polygon fill="#b03a3a" stroke="black" points="348.73,-257.19 355.12,-248.74 344.85,-251.36 348.73,-257.19"/>
</g>
<!-- pyrepsys_config -->
<g id="node7" class="node">
<title>pyrepsys_config</title><style>.edge>path:hover{stroke-width:8}</style>
<ellipse fill="#e50505" stroke="black" cx="279.75" cy="-698.13" rx="27.16" ry="18"/>
<text text-anchor="middle" x="279.75" y="-695.63" font-family="Helvetica,sans-Serif" font-size="10.00" fill="#ffffff">config</text>
</g>
<!-- pyrepsys_config&#45;&gt;pyrepsys_agent -->
<g id="edge8" class="edge">
<title>pyrepsys_config&#45;&gt;pyrepsys_agent</title><style>.edge>path:hover{stroke-width:8}</style>
<path fill="none" stroke="black" d="M268.75,-621.92C264.1,-604.5 256.53,-585.72 250.03,-571.14"/>
<polygon fill="#e50505" stroke="black" points="253.09,-569.42 245.75,-561.78 246.72,-572.33 253.09,-569.42"/>
</g>
<!-- pyrepsys_config&#45;&gt;pyrepsys_behavior_distort -->
<g id="edge9" class="edge">
<title>pyrepsys_config&#45;&gt;pyrepsys_behavior_distort</title><style>.edge>path:hover{stroke-width:8}</style>
<path fill="none" stroke="black" d="M299.75,-465.07C303.19,-417.29 361.43,-434.35 375.75,-388.64"/>
<path fill="none" stroke="black" d="M375.75,-386.64C380.34,-372.01 380.78,-355.02 379.89,-340.77"/>
<polygon fill="#e50505" stroke="black" points="383.35,-340.16 379,-330.5 376.38,-340.77 383.35,-340.16"/>
</g>
<!-- pyrepsys_config&#45;&gt;pyrepsys_behavior_rate -->
<g id="edge10" class="edge">
<title>pyrepsys_config&#45;&gt;pyrepsys_behavior_rate</title><style>.edge>path:hover{stroke-width:8}</style>
<path fill="none" stroke="black" d="M268.75,-621.92C259.7,-588.01 301.29,-502.13 299.75,-467.07"/>
<path fill="none" stroke="black" d="M299.75,-465.07C300.59,-419.78 236.2,-448.75 214.75,-408.85 205.82,-392.24 207.96,-384.02 214.75,-366.43 219.7,-353.62 229.06,-341.93 238.43,-332.57"/>
<polygon fill="#e50505" stroke="black" points="240.97,-334.98 245.86,-325.58 236.17,-329.88 240.97,-334.98"/>
</g>
<!-- pyrepsys_helpers -->
<g id="node10" class="node">
<title>pyrepsys_helpers</title><style>.edge>path:hover{stroke-width:8}</style>
<ellipse fill="#ca1616" stroke="black" cx="330.75" cy="-622.92" rx="31.4" ry="18"/>
<text text-anchor="middle" x="330.75" y="-620.42" font-family="Helvetica,sans-Serif" font-size="10.00" fill="#ffffff">helpers</text>
</g>
<!-- pyrepsys_config&#45;&gt;pyrepsys_helpers -->
<g id="edge11" class="edge">
<title>pyrepsys_config&#45;&gt;pyrepsys_helpers</title><style>.edge>path:hover{stroke-width:8}</style>
<path fill="none" stroke="black" d="M290.57,-681.61C297.31,-671.93 306.12,-659.29 313.77,-648.3"/>
<polygon fill="#e50505" stroke="black" points="316.76,-650.14 319.6,-639.93 311.01,-646.13 316.76,-650.14"/>
</g>
<!-- pyrepsys_main -->
<g id="node12" class="node">
<title>pyrepsys_main</title><style>.edge>path:hover{stroke-width:8}</style>
<ellipse fill="#822b2b" stroke="black" cx="896.75" cy="-90" rx="27" ry="18"/>
<text text-anchor="middle" x="896.75" y="-87.5" font-family="Helvetica,sans-Serif" font-size="10.00" fill="#ffffff">main</text>
</g>
<!-- pyrepsys_config&#45;&gt;pyrepsys_main -->
<g id="edge12" class="edge">
<title>pyrepsys_config&#45;&gt;pyrepsys_main</title><style>.edge>path:hover{stroke-width:8}</style>
<path fill="none" stroke="black" d="M278.44,-680C277,-664.99 274.13,-642.7 268.75,-623.92"/>
<path fill="none" stroke="black" d="M268.75,-621.92C258.05,-584.55 222.34,-598.68 201.75,-565.71 158.81,-496.92 121.26,-461.06 157.75,-388.64"/>
</g>
<!-- pyrepsys_metrics_other_metrics -->
<g id="node16" class="node">
<title>pyrepsys_metrics_other_metrics</title><style>.edge>path:hover{stroke-width:8}</style>
<ellipse fill="#a13535" stroke="black" cx="683.75" cy="-544.49" rx="59.29" ry="21.43"/>
<text text-anchor="middle" x="683.75" y="-547.49" font-family="Helvetica,sans-Serif" font-size="10.00" fill="#ffffff">metrics.</text>
<text text-anchor="middle" x="683.75" y="-536.49" font-family="Helvetica,sans-Serif" font-size="10.00" fill="#ffffff">other_metrics</text>
</g>
<!-- pyrepsys_config&#45;&gt;pyrepsys_metrics_other_metrics -->
<g id="edge13" class="edge">
<title>pyrepsys_config&#45;&gt;pyrepsys_metrics_other_metrics</title><style>.edge>path:hover{stroke-width:8}</style>
<path fill="none" stroke="black" d="M520.75,-621.92C530.87,-612.32 532.81,-608.9 544.75,-601.71 571.66,-585.5 604.09,-572.08 630.85,-562.42"/>
<polygon fill="#e50505" stroke="black" points="632.17,-565.67 640.44,-559.04 629.84,-559.07 632.17,-565.67"/>
</g>
<!-- pyrepsys_reputation_improvements -->
<g id="node19" class="node">
<title>pyrepsys_reputation_improvements</title><style>.edge>path:hover{stroke-width:8}</style>
<ellipse fill="#a83838" stroke="black" cx="465.75" cy="-466.07" rx="62.45" ry="21.43"/>
<text text-anchor="middle" x="465.75" y="-469.07" font-family="Helvetica,sans-Serif" font-size="10.00" fill="#ffffff">reputation.</text>
<text text-anchor="middle" x="465.75" y="-458.07" font-family="Helvetica,sans-Serif" font-size="10.00" fill="#ffffff">improvements</text>
</g>
<!-- pyrepsys_config&#45;&gt;pyrepsys_reputation_improvements -->
<g id="edge14" class="edge">
<title>pyrepsys_config&#45;&gt;pyrepsys_reputation_improvements</title><style>.edge>path:hover{stroke-width:8}</style>
<path fill="none" stroke="black" d="M306.76,-696.49C355.84,-693.88 460.19,-681.43 520.75,-623.92"/>
<path fill="none" stroke="black" d="M520.75,-621.92C556.33,-588.14 450.06,-608.32 425.75,-565.71 412.72,-542.85 426.56,-514.9 441.41,-494.6"/>
<polygon fill="#e50505" stroke="black" points="444.19,-496.73 447.54,-486.68 438.65,-492.45 444.19,-496.73"/>
</g>
<!-- pyrepsys_reputation_reputations -->
<g id="node21" class="node">
<title>pyrepsys_reputation_reputations</title><style>.edge>path:hover{stroke-width:8}</style>
<ellipse fill="#a83838" stroke="black" cx="596.75" cy="-466.07" rx="50.82" ry="21.43"/>
<text text-anchor="middle" x="596.75" y="-469.07" font-family="Helvetica,sans-Serif" font-size="10.00" fill="#ffffff">reputation.</text>
<text text-anchor="middle" x="596.75" y="-458.07" font-family="Helvetica,sans-Serif" font-size="10.00" fill="#ffffff">reputations</text>
</g>
<!-- pyrepsys_config&#45;&gt;pyrepsys_reputation_reputations -->
<g id="edge15" class="edge">
<title>pyrepsys_config&#45;&gt;pyrepsys_reputation_reputations</title><style>.edge>path:hover{stroke-width:8}</style>
<path fill="none" stroke="black" d="M520.75,-621.92C530.16,-614.51 594.07,-557.16 596.75,-545.49"/>
<path fill="none" stroke="black" d="M596.75,-543.49C600.16,-528.65 600.51,-511.76 599.86,-497.64"/>
<polygon fill="#e50505" stroke="black" points="603.34,-497.21 599.21,-487.46 596.36,-497.66 603.34,-497.21"/>
</g>
<!-- pyrepsys_config&#45;&gt;pyrepsys_scenario_simulator -->
<g id="edge16" class="edge">
<title>pyrepsys_config&#45;&gt;pyrepsys_scenario_simulator</title><style>.edge>path:hover{stroke-width:8}</style>
<path fill="none" stroke="black" d="M258.31,-686.75C236.31,-674.85 203.07,-653.17 186.75,-623.92"/>
<path fill="none" stroke="black" d="M186.75,-621.92C158.71,-571.65 114.86,-520.59 88.07,-491.48"/>
<polygon fill="#e50505" stroke="black" points="90.37,-488.81 81,-483.87 85.24,-493.58 90.37,-488.81"/>
</g>
<!-- pyrepsys_errors -->
<g id="node8" class="node">
<title>pyrepsys_errors</title><style>.edge>path:hover{stroke-width:8}</style>
<ellipse fill="#f91010" stroke="black" cx="682.75" cy="-842.13" rx="27" ry="18"/>
<text text-anchor="middle" x="682.75" y="-839.63" font-family="Helvetica,sans-Serif" font-size="10.00" fill="#ffffff">errors</text>
</g>
<!-- pyrepsys_errors&#45;&gt;pyrepsys_agent -->
<g id="edge17" class="edge">
<title>pyrepsys_errors&#45;&gt;pyrepsys_agent</title><style>.edge>path:hover{stroke-width:8}</style>
<path fill="none" stroke="black" d="M186.75,-697.13C184.27,-691.15 212.51,-613.31 228,-571.55"/>
<polygon fill="#f91010" stroke="black" points="231.34,-572.62 231.54,-562.02 224.78,-570.17 231.34,-572.62"/>
</g>
<!-- pyrepsys_errors&#45;&gt;pyrepsys_config -->
<g id="edge18" class="edge">
<title>pyrepsys_errors&#45;&gt;pyrepsys_config</title><style>.edge>path:hover{stroke-width:8}</style>
<path fill="none" stroke="black" d="M307.75,-769.13C293.94,-759.2 286.93,-741.31 283.38,-726.09"/>
<polygon fill="#f91010" stroke="black" points="286.79,-725.27 281.44,-716.12 279.92,-726.61 286.79,-725.27"/>
</g>
<!-- pyrepsys_helper_types -->
<g id="node9" class="node">
<title>pyrepsys_helper_types</title><style>.edge>path:hover{stroke-width:8}</style>
<ellipse fill="#ef0606" stroke="black" cx="682.75" cy="-770.13" rx="47.19" ry="18"/>
<text text-anchor="middle" x="682.75" y="-767.63" font-family="Helvetica,sans-Serif" font-size="10.00" fill="#ffffff">helper_types</text>
</g>
<!-- pyrepsys_errors&#45;&gt;pyrepsys_helper_types -->
<g id="edge19" class="edge">
<title>pyrepsys_errors&#45;&gt;pyrepsys_helper_types</title><style>.edge>path:hover{stroke-width:8}</style>
<path fill="none" stroke="black" d="M682.75,-823.83C682.75,-816.11 682.75,-806.84 682.75,-798.24"/>
<polygon fill="#f91010" stroke="black" points="686.25,-798.24 682.75,-788.24 679.25,-798.24 686.25,-798.24"/>
</g>
<!-- pyrepsys_errors&#45;&gt;pyrepsys_helpers -->
<g id="edge20" class="edge">
<title>pyrepsys_errors&#45;&gt;pyrepsys_helpers</title><style>.edge>path:hover{stroke-width:8}</style>
<path fill="none" stroke="black" d="M307.75,-769.13C307.15,-768.7 319.42,-693.14 326.28,-651.2"/>
<polygon fill="#f91010" stroke="black" points="329.77,-651.52 327.93,-641.08 322.86,-650.39 329.77,-651.52"/>
</g>
<!-- pyrepsys_errors&#45;&gt;pyrepsys_main -->
<g id="edge21" class="edge">
<title>pyrepsys_errors&#45;&gt;pyrepsys_main</title><style>.edge>path:hover{stroke-width:8}</style>
<path fill="none" stroke="black" d="M894.75,-769.13C914.46,-735.86 943.23,-748.9 963.75,-716.13 985.96,-680.67 982.75,-665.76 982.75,-623.92 982.75,-623.92 982.75,-623.92 982.75,-386.64 982.75,-319.24 1000.68,-299.97 982.75,-235"/>
<path fill="none" stroke="black" d="M982.75,-233C967.77,-186.05 911.81,-209.93 896.75,-163"/>
</g>
<!-- pyrepsys_errors&#45;&gt;pyrepsys_metrics_other_metrics -->
<g id="edge22" class="edge">
<title>pyrepsys_errors&#45;&gt;pyrepsys_metrics_other_metrics</title><style>.edge>path:hover{stroke-width:8}</style>
<path fill="none" stroke="black" d="M768.75,-697.13C733.53,-672.05 771.65,-639 749.75,-601.71 742.46,-589.28 731.38,-578.28 720.38,-569.39"/>
<polygon fill="#f91010" stroke="black" points="722.5,-566.6 712.44,-563.29 718.24,-572.15 722.5,-566.6"/>
</g>
<!-- pyrepsys_errors&#45;&gt;pyrepsys_reputation_reputations -->
<g id="edge23" class="edge">
<title>pyrepsys_errors&#45;&gt;pyrepsys_reputation_reputations</title><style>.edge>path:hover{stroke-width:8}</style>
<path fill="none" stroke="black" d="M708.64,-836.86C760.83,-827.61 875.35,-803.9 894.75,-771.13"/>
<path fill="none" stroke="black" d="M894.75,-769.13C927.39,-714.01 821.73,-735.14 768.75,-699.13"/>
<path fill="none" stroke="black" d="M768.75,-697.13C709.24,-656.68 662.87,-698.53 615.75,-644.13 586.52,-610.39 586.77,-589.01 596.75,-545.49"/>
</g>
<!-- pyrepsys_results_processor -->
<g id="node22" class="node">
<title>pyrepsys_results_processor</title><style>.edge>path:hover{stroke-width:8}</style>
<ellipse fill="#b03a3a" stroke="black" cx="894.75" cy="-698.13" rx="60.09" ry="18"/>
<text text-anchor="middle" x="894.75" y="-695.63" font-family="Helvetica,sans-Serif" font-size="10.00" fill="#ffffff">results_processor</text>
</g>
<!-- pyrepsys_errors&#45;&gt;pyrepsys_results_processor -->
<g id="edge24" class="edge">
<title>pyrepsys_errors&#45;&gt;pyrepsys_results_processor</title><style>.edge>path:hover{stroke-width:8}</style>
<path fill="none" stroke="black" d="M894.75,-769.13C902.3,-756.38 902.66,-739.9 900.97,-726.13"/>
<polygon fill="#f91010" stroke="black" points="904.42,-725.55 899.35,-716.24 897.51,-726.67 904.42,-725.55"/>
</g>
<!-- pyrepsys_scenario_creator -->
<g id="node23" class="node">
<title>pyrepsys_scenario_creator</title><style>.edge>path:hover{stroke-width:8}</style>
<ellipse fill="#b03a3a" stroke="black" cx="982.75" cy="-162" rx="57.88" ry="18"/>
<text text-anchor="middle" x="982.75" y="-159.5" font-family="Helvetica,sans-Serif" font-size="10.00" fill="#ffffff">scenario_creator</text>
</g>
<!-- pyrepsys_errors&#45;&gt;pyrepsys_scenario_creator -->
<g id="edge25" class="edge">
<title>pyrepsys_errors&#45;&gt;pyrepsys_scenario_creator</title><style>.edge>path:hover{stroke-width:8}</style>
<path fill="none" stroke="black" d="M982.75,-233C978.97,-219.27 978.65,-203.44 979.41,-190.31"/>
<polygon fill="#f91010" stroke="black" points="982.93,-190.28 980.26,-180.03 975.95,-189.71 982.93,-190.28"/>
</g>
<!-- pyrepsys_errors&#45;&gt;pyrepsys_scenario_simulator -->
<g id="edge26" class="edge">
<title>pyrepsys_errors&#45;&gt;pyrepsys_scenario_simulator</title><style>.edge>path:hover{stroke-width:8}</style>
<path fill="none" stroke="black" d="M656.08,-838.92C580.26,-832.21 365.24,-810.12 307.75,-771.13"/>
<path fill="none" stroke="black" d="M307.75,-769.13C256.34,-734.26 213.28,-755.31 186.75,-699.13"/>
<path fill="none" stroke="black" d="M186.75,-697.13C172.86,-667.71 204.22,-651.37 186.75,-623.92"/>
</g>
<!-- pyrepsys_helper_types&#45;&gt;pyrepsys_behavior_behavior_base -->
<g id="edge27" class="edge">
<title>pyrepsys_helper_types&#45;&gt;pyrepsys_behavior_behavior_base</title><style>.edge>path:hover{stroke-width:8}</style>
<path fill="none" stroke="black" d="M682.75,-697.13C654.45,-639.73 599.21,-673.51 558.75,-623.92"/>
<path fill="none" stroke="black" d="M558.75,-621.92C518.19,-572.19 478.34,-602.49 425.75,-565.71 368.97,-525.99 323.84,-456.66 301.35,-417.58"/>
<polygon fill="#ef0606" stroke="black" points="304.35,-415.77 296.38,-408.79 298.26,-419.22 304.35,-415.77"/>
</g>
<!-- pyrepsys_helper_types&#45;&gt;pyrepsys_config -->
<g id="edge28" class="edge">
<title>pyrepsys_helper_types&#45;&gt;pyrepsys_config</title><style>.edge>path:hover{stroke-width:8}</style>
<path fill="none" stroke="black" d="M640.77,-761.84C561.41,-748.05 390.68,-718.4 315.99,-705.43"/>
<polygon fill="#ef0606" stroke="black" points="316.14,-701.9 305.69,-703.64 314.94,-708.8 316.14,-701.9"/>
</g>
<!-- pyrepsys_helper_types&#45;&gt;pyrepsys_helpers -->
<g id="edge29" class="edge">
<title>pyrepsys_helper_types&#45;&gt;pyrepsys_helpers</title><style>.edge>path:hover{stroke-width:8}</style>
<path fill="none" stroke="black" d="M686.58,-752.17C689.03,-737.44 690.48,-715.91 682.75,-699.13"/>
<path fill="none" stroke="black" d="M682.75,-697.13C669.66,-668.71 461.03,-639.88 371.29,-628.73"/>
<polygon fill="#ef0606" stroke="black" points="371.56,-625.24 361.21,-627.49 370.7,-632.19 371.56,-625.24"/>
</g>
<!-- pyrepsys_helper_types&#45;&gt;pyrepsys_main -->
<g id="edge30" class="edge">
<title>pyrepsys_helper_types&#45;&gt;pyrepsys_main</title><style>.edge>path:hover{stroke-width:8}</style>
<path fill="none" stroke="black" d="M711.68,-755.81C732.16,-745.9 759.93,-731.49 782.75,-716.13 803.43,-702.22 806.54,-696 825.75,-680.13 856.25,-654.94 879.73,-660.51 894.75,-623.92"/>
<path fill="none" stroke="black" d="M894.75,-621.92C910.81,-583.6 996.32,-516.87 896.75,-163"/>
<path fill="none" stroke="black" d="M896.75,-161C892.4,-147.44 892.03,-131.63 892.92,-118.46"/>
<polygon fill="#ef0606" stroke="black" points="896.43,-118.42 893.89,-108.14 889.47,-117.76 896.43,-118.42"/>
</g>
<!-- pyrepsys_metrics_debug_metrics -->
<g id="node14" class="node">
<title>pyrepsys_metrics_debug_metrics</title><style>.edge>path:hover{stroke-width:8}</style>
<ellipse fill="#b03a3a" stroke="black" cx="823.75" cy="-544.49" rx="62.87" ry="21.43"/>
<text text-anchor="middle" x="823.75" y="-547.49" font-family="Helvetica,sans-Serif" font-size="10.00" fill="#ffffff">metrics.</text>
<text text-anchor="middle" x="823.75" y="-536.49" font-family="Helvetica,sans-Serif" font-size="10.00" fill="#ffffff">debug_metrics</text>
</g>
<!-- pyrepsys_helper_types&#45;&gt;pyrepsys_metrics_debug_metrics -->
<g id="edge31" class="edge">
<title>pyrepsys_helper_types&#45;&gt;pyrepsys_metrics_debug_metrics</title><style>.edge>path:hover{stroke-width:8}</style>
<path fill="none" stroke="black" d="M682.75,-697.13C666.86,-662.65 723.25,-671.32 749.75,-644.13 770.93,-622.4 791.35,-594.49 805.35,-573.91"/>
<polygon fill="#ef0606" stroke="black" points="808.27,-575.83 810.94,-565.58 802.46,-571.93 808.27,-575.83"/>
</g>
<!-- pyrepsys_metrics_metrics_base -->
<g id="node15" class="node">
<title>pyrepsys_metrics_metrics_base</title><style>.edge>path:hover{stroke-width:8}</style>
<ellipse fill="#c43131" stroke="black" cx="682.75" cy="-622.92" rx="57.97" ry="21.43"/>
<text text-anchor="middle" x="682.75" y="-625.92" font-family="Helvetica,sans-Serif" font-size="10.00" fill="#ffffff">metrics.</text>
<text text-anchor="middle" x="682.75" y="-614.92" font-family="Helvetica,sans-Serif" font-size="10.00" fill="#ffffff">metrics_base</text>
</g>
<!-- pyrepsys_helper_types&#45;&gt;pyrepsys_metrics_metrics_base -->
<g id="edge32" class="edge">
<title>pyrepsys_helper_types&#45;&gt;pyrepsys_metrics_metrics_base</title><style>.edge>path:hover{stroke-width:8}</style>
<path fill="none" stroke="black" d="M682.75,-697.13C676.65,-683.89 676.02,-667.8 677.18,-654.09"/>
<polygon fill="#ef0606" stroke="black" points="680.65,-654.49 678.35,-644.15 673.7,-653.67 680.65,-654.49"/>
</g>
<!-- pyrepsys_helper_types&#45;&gt;pyrepsys_metrics_other_metrics -->
<g id="edge33" class="edge">
<title>pyrepsys_helper_types&#45;&gt;pyrepsys_metrics_other_metrics</title><style>.edge>path:hover{stroke-width:8}</style>
<path fill="none" stroke="black" d="M558.75,-621.92C546.29,-606.64 594.79,-581.83 634.97,-564.64"/>
<polygon fill="#ef0606" stroke="black" points="636.57,-567.76 644.44,-560.66 633.86,-561.31 636.57,-567.76"/>
</g>
<!-- pyrepsys_reputation_reputation_base -->
<g id="node20" class="node">
<title>pyrepsys_reputation_reputation_base</title><style>.edge>path:hover{stroke-width:8}</style>
<ellipse fill="#c43131" stroke="black" cx="501.75" cy="-544.49" rx="67.35" ry="21.43"/>
<text text-anchor="middle" x="501.75" y="-547.49" font-family="Helvetica,sans-Serif" font-size="10.00" fill="#ffffff">reputation.</text>
<text text-anchor="middle" x="501.75" y="-536.49" font-family="Helvetica,sans-Serif" font-size="10.00" fill="#ffffff">reputation_base</text>
</g>
<!-- pyrepsys_helper_types&#45;&gt;pyrepsys_reputation_reputation_base -->
<g id="edge34" class="edge">
<title>pyrepsys_helper_types&#45;&gt;pyrepsys_reputation_reputation_base</title><style>.edge>path:hover{stroke-width:8}</style>
<path fill="none" stroke="black" d="M558.75,-621.92C545.98,-606.26 532.43,-588.17 521.75,-573.51"/>
<polygon fill="#ef0606" stroke="black" points="524.52,-571.37 515.82,-565.33 518.85,-575.48 524.52,-571.37"/>
</g>
<!-- pyrepsys_helper_types&#45;&gt;pyrepsys_results_processor -->
<g id="edge35" class="edge">
<title>pyrepsys_helper_types&#45;&gt;pyrepsys_results_processor</title><style>.edge>path:hover{stroke-width:8}</style>
<path fill="none" stroke="black" d="M717.29,-757.73C752.33,-746.16 806.88,-728.15 846.26,-715.14"/>
<polygon fill="#ef0606" stroke="black" points="847.52,-718.41 855.92,-711.95 845.33,-711.77 847.52,-718.41"/>
</g>
<!-- pyrepsys_helper_types&#45;&gt;pyrepsys_scenario_simulator -->
<g id="edge36" class="edge">
<title>pyrepsys_helper_types&#45;&gt;pyrepsys_scenario_simulator</title><style>.edge>path:hover{stroke-width:8}</style>
<path fill="none" stroke="black" d="M635.6,-768.51C535.96,-766.41 307.87,-757.11 243.75,-716.13 203.15,-690.19 212.35,-664.74 186.75,-623.92"/>
</g>
<!-- pyrepsys_helpers&#45;&gt;pyrepsys_agent -->
<g id="edge37" class="edge">
<title>pyrepsys_helpers&#45;&gt;pyrepsys_agent</title><style>.edge>path:hover{stroke-width:8}</style>
<path fill="none" stroke="black" d="M313.26,-607.54C298.83,-595.69 278.2,-578.73 262.15,-565.54"/>
<polygon fill="#ca1616" stroke="black" points="264.18,-562.68 254.23,-559.03 259.73,-568.09 264.18,-562.68"/>
</g>
<!-- pyrepsys_helpers&#45;&gt;pyrepsys_behavior_distort -->
<g id="edge38" class="edge">
<title>pyrepsys_helpers&#45;&gt;pyrepsys_behavior_distort</title><style>.edge>path:hover{stroke-width:8}</style>
<path fill="none" stroke="black" d="M330.75,-543.49C318.26,-472.92 359.72,-458.49 375.75,-388.64"/>
</g>
<!-- pyrepsys_helpers&#45;&gt;pyrepsys_reputation_improvements -->
<g id="edge39" class="edge">
<title>pyrepsys_helpers&#45;&gt;pyrepsys_reputation_improvements</title><style>.edge>path:hover{stroke-width:8}</style>
<path fill="none" stroke="black" d="M330.75,-543.49C327.25,-523.69 373.78,-500.98 413.15,-485.5"/>
<polygon fill="#ca1616" stroke="black" points="414.9,-488.58 422.98,-481.72 412.39,-482.04 414.9,-488.58"/>
</g>
<!-- pyrepsys_helpers&#45;&gt;pyrepsys_scenario_simulator -->
<g id="edge40" class="edge">
<title>pyrepsys_helpers&#45;&gt;pyrepsys_scenario_simulator</title><style>.edge>path:hover{stroke-width:8}</style>
<path fill="none" stroke="black" d="M332.45,-604.77C333.59,-589.18 334.31,-565.61 330.75,-545.49"/>
<path fill="none" stroke="black" d="M330.75,-543.49C323.73,-503.82 211.73,-483.32 135.33,-473.91"/>
<polygon fill="#ca1616" stroke="black" points="135.61,-470.42 125.26,-472.71 134.78,-477.37 135.61,-470.42"/>
</g>
<!-- pyrepsys_instantiator&#45;&gt;pyrepsys_main -->
<g id="edge41" class="edge">
<title>pyrepsys_instantiator&#45;&gt;pyrepsys_main</title><style>.edge>path:hover{stroke-width:8}</style>
<path fill="none" stroke="black" d="M712.71,-150.37C753.46,-137.22 822.42,-114.98 863.37,-101.77"/>
<polygon fill="#a83838" stroke="black" points="864.45,-105.1 872.89,-98.7 862.3,-98.44 864.45,-105.1"/>
</g>
<!-- pyrepsys_main&#45;&gt;pyrepsys -->
<g id="edge42" class="edge">
<title>pyrepsys_main&#45;&gt;pyrepsys</title><style>.edge>path:hover{stroke-width:8}</style>
<path fill="none" stroke="black" d="M896.75,-71.7C896.75,-63.98 896.75,-54.71 896.75,-46.11"/>
<polygon fill="#822b2b" stroke="black" points="900.25,-46.1 896.75,-36.1 893.25,-46.1 900.25,-46.1"/>
</g>
<!-- pyrepsys_metrics -->
<g id="node13" class="node">
<title>pyrepsys_metrics</title><style>.edge>path:hover{stroke-width:8}</style>
<ellipse fill="#b83d3d" stroke="black" cx="696.75" cy="-466.07" rx="31.4" ry="18"/>
<text text-anchor="middle" x="696.75" y="-463.57" font-family="Helvetica,sans-Serif" font-size="10.00" fill="#ffffff">metrics</text>
</g>
<!-- pyrepsys_metrics&#45;&gt;pyrepsys_instantiator -->
<g id="edge43" class="edge">
<title>pyrepsys_metrics&#45;&gt;pyrepsys_instantiator</title><style>.edge>path:hover{stroke-width:8}</style>
<path fill="none" stroke="black" d="M690.63,-447.96C681.21,-419.02 665.62,-358.77 679.75,-310.21"/>
</g>
<!-- pyrepsys_metrics_debug_metrics&#45;&gt;pyrepsys_metrics -->
<g id="edge44" class="edge">
<title>pyrepsys_metrics_debug_metrics&#45;&gt;pyrepsys_metrics</title><style>.edge>path:hover{stroke-width:8}</style>
<path fill="none" stroke="black" d="M793.98,-525.57C773.63,-513.33 746.78,-497.17 726.45,-484.94"/>
<polygon fill="#b03a3a" stroke="black" points="727.99,-481.78 717.62,-479.62 724.38,-487.78 727.99,-481.78"/>
</g>
<!-- pyrepsys_metrics_metrics_base&#45;&gt;pyrepsys_metrics_debug_metrics -->
<g id="edge45" class="edge">
<title>pyrepsys_metrics_metrics_base&#45;&gt;pyrepsys_metrics_debug_metrics</title><style>.edge>path:hover{stroke-width:8}</style>
<path fill="none" stroke="black" d="M714.05,-604.96C734.21,-594.03 760.64,-579.7 782.51,-567.85"/>
<polygon fill="#c43131" stroke="black" points="784.45,-570.78 791.57,-562.94 781.11,-564.62 784.45,-570.78"/>
</g>
<!-- pyrepsys_metrics_metrics_base&#45;&gt;pyrepsys_metrics_other_metrics -->
<g id="edge46" class="edge">
<title>pyrepsys_metrics_metrics_base&#45;&gt;pyrepsys_metrics_other_metrics</title><style>.edge>path:hover{stroke-width:8}</style>
<path fill="none" stroke="black" d="M683.02,-601.44C683.12,-593.58 683.24,-584.44 683.36,-575.84"/>
<polygon fill="#c43131" stroke="black" points="686.86,-575.81 683.49,-565.76 679.86,-575.72 686.86,-575.81"/>
</g>
<!-- pyrepsys_metrics_other_metrics&#45;&gt;pyrepsys_metrics -->
<g id="edge47" class="edge">
<title>pyrepsys_metrics_other_metrics&#45;&gt;pyrepsys_metrics</title><style>.edge>path:hover{stroke-width:8}</style>
<path fill="none" stroke="black" d="M687.24,-523.01C688.72,-514.27 690.48,-503.95 692.08,-494.56"/>
<polygon fill="#a13535" stroke="black" points="695.56,-494.94 693.79,-484.49 688.66,-493.76 695.56,-494.94"/>
</g>
<!-- pyrepsys_paths -->
<g id="node17" class="node">
<title>pyrepsys_paths</title><style>.edge>path:hover{stroke-width:8}</style>
<ellipse fill="#ce3b3b" stroke="black" cx="1052.75" cy="-234" rx="27" ry="18"/>
<text text-anchor="middle" x="1052.75" y="-231.5" font-family="Helvetica,sans-Serif" font-size="10.00" fill="#ffffff">paths</text>
</g>
<!-- pyrepsys_paths&#45;&gt;pyrepsys_main -->
<g id="edge48" class="edge">
<title>pyrepsys_paths&#45;&gt;pyrepsys_main</title><style>.edge>path:hover{stroke-width:8}</style>
<path fill="none" stroke="black" d="M1057.4,-216.09C1061.64,-196.7 1065.17,-164.9 1049.75,-144 1023.1,-107.86 970.14,-96.19 934.08,-92.52"/>
<polygon fill="#ce3b3b" stroke="black" points="934.2,-89.01 923.94,-91.65 933.6,-95.99 934.2,-89.01"/>
</g>
<!-- pyrepsys_paths&#45;&gt;pyrepsys_scenario_creator -->
<g id="edge49" class="edge">
<title>pyrepsys_paths&#45;&gt;pyrepsys_scenario_creator</title><style>.edge>path:hover{stroke-width:8}</style>
<path fill="none" stroke="black" d="M1038.25,-218.5C1029.1,-209.34 1017.06,-197.31 1006.53,-186.78"/>
<polygon fill="#ce3b3b" stroke="black" points="1008.75,-184.04 999.2,-179.45 1003.8,-188.99 1008.75,-184.04"/>
</g>
<!-- pyrepsys_reputation -->
<g id="node18" class="node">
<title>pyrepsys_reputation</title><style>.edge>path:hover{stroke-width:8}</style>
<ellipse fill="#b83d3d" stroke="black" cx="596.75" cy="-387.64" rx="39.38" ry="18"/>
<text text-anchor="middle" x="596.75" y="-385.14" font-family="Helvetica,sans-Serif" font-size="10.00" fill="#ffffff">reputation</text>
</g>
<!-- pyrepsys_reputation&#45;&gt;pyrepsys_instantiator -->
<g id="edge50" class="edge">
<title>pyrepsys_reputation&#45;&gt;pyrepsys_instantiator</title><style>.edge>path:hover{stroke-width:8}</style>
<path fill="none" stroke="black" d="M622.32,-373.85C643.92,-361.2 672.48,-339.49 679.75,-310.21"/>
<path fill="none" stroke="black" d="M679.75,-308.21C689.71,-268.12 686.92,-219.85 683.62,-190.3"/>
<polygon fill="#b83d3d" stroke="black" points="687.09,-189.82 682.41,-180.31 680.14,-190.66 687.09,-189.82"/>
</g>
<!-- pyrepsys_reputation_improvements&#45;&gt;pyrepsys_reputation -->
<g id="edge51" class="edge">
<title>pyrepsys_reputation_improvements&#45;&gt;pyrepsys_reputation</title><style>.edge>path:hover{stroke-width:8}</style>
<path fill="none" stroke="black" d="M496.14,-447.34C516.68,-435.36 543.76,-419.55 564.66,-407.37"/>
<polygon fill="#a83838" stroke="black" points="566.61,-410.28 573.48,-402.22 563.08,-404.23 566.61,-410.28"/>
</g>
<!-- pyrepsys_reputation_reputation_base&#45;&gt;pyrepsys_reputation_improvements -->
<g id="edge52" class="edge">
<title>pyrepsys_reputation_reputation_base&#45;&gt;pyrepsys_reputation_improvements</title><style>.edge>path:hover{stroke-width:8}</style>
<path fill="none" stroke="black" d="M492.29,-523.41C488.4,-515.14 483.81,-505.39 479.55,-496.35"/>
<polygon fill="#c43131" stroke="black" points="482.7,-494.83 475.27,-487.28 476.37,-497.82 482.7,-494.83"/>
</g>
<!-- pyrepsys_reputation_reputation_base&#45;&gt;pyrepsys_reputation_reputations -->
<g id="edge53" class="edge">
<title>pyrepsys_reputation_reputation_base&#45;&gt;pyrepsys_reputation_reputations</title><style>.edge>path:hover{stroke-width:8}</style>
<path fill="none" stroke="black" d="M525.24,-524.6C537.61,-514.64 552.94,-502.31 566.23,-491.62"/>
<polygon fill="#c43131" stroke="black" points="568.6,-494.21 574.19,-485.21 564.21,-488.76 568.6,-494.21"/>
</g>
<!-- pyrepsys_reputation_reputations&#45;&gt;pyrepsys_reputation -->
<g id="edge54" class="edge">
<title>pyrepsys_reputation_reputations&#45;&gt;pyrepsys_reputation</title><style>.edge>path:hover{stroke-width:8}</style>
<path fill="none" stroke="black" d="M596.75,-444.59C596.75,-435.85 596.75,-425.52 596.75,-416.13"/>
<polygon fill="#a83838" stroke="black" points="600.25,-416.07 596.75,-406.07 593.25,-416.07 600.25,-416.07"/>
</g>
<!-- pyrepsys_results_processor&#45;&gt;pyrepsys_main -->
<g id="edge55" class="edge">
<title>pyrepsys_results_processor&#45;&gt;pyrepsys_main</title><style>.edge>path:hover{stroke-width:8}</style>
<path fill="none" stroke="black" d="M891.21,-680.15C888.83,-664.84 887.32,-642.03 894.75,-623.92"/>
</g>
<!-- pyrepsys_scenario_creator&#45;&gt;pyrepsys_main -->
<g id="edge56" class="edge">
<title>pyrepsys_scenario_creator&#45;&gt;pyrepsys_main</title><style>.edge>path:hover{stroke-width:8}</style>
<path fill="none" stroke="black" d="M962.81,-144.76C950.31,-134.6 934.14,-121.43 920.92,-110.67"/>
<polygon fill="#b03a3a" stroke="black" points="923.1,-107.93 913.13,-104.33 918.68,-113.36 923.1,-107.93"/>
</g>
<!-- pyrepsys_scenario_simulator&#45;&gt;pyrepsys_main -->
<g id="edge57" class="edge">
<title>pyrepsys_scenario_simulator&#45;&gt;pyrepsys_main</title><style>.edge>path:hover{stroke-width:8}</style>
<path fill="none" stroke="black" d="M98.5,-450.39C121.76,-437.93 149.85,-417.46 157.75,-388.64"/>
<path fill="none" stroke="black" d="M157.75,-386.64C219.91,-159.92 398.16,-194.52 627.75,-144 711.04,-125.68 809.5,-107.04 861.1,-97.51"/>
<polygon fill="#993333" stroke="black" points="861.88,-100.92 871.08,-95.67 860.61,-94.04 861.88,-100.92"/>
</g>
</g>
</svg>
